%TF.GenerationSoftware,KiCad,Pcbnew,9.0.2-9.0.2-0~ubuntu24.04.1*%
%TF.CreationDate,2025-10-22T08:36:29+03:00*%
%TF.ProjectId,atlas-test-task,61746c61-732d-4746-9573-742d7461736b,rev?*%
%TF.SameCoordinates,Original*%
%TF.FileFunction,Soldermask,Bot*%
%TF.FilePolarity,Negative*%
%FSLAX46Y46*%
G04 Gerber Fmt 4.6, Leading zero omitted, Abs format (unit mm)*
G04 Created by KiCad (PCBNEW 9.0.2-9.0.2-0~ubuntu24.04.1) date 2025-10-22 08:36:29*
%MOMM*%
%LPD*%
G01*
G04 APERTURE LIST*
G04 Aperture macros list*
%AMRoundRect*
0 Rectangle with rounded corners*
0 $1 Rounding radius*
0 $2 $3 $4 $5 $6 $7 $8 $9 X,Y pos of 4 corners*
0 Add a 4 corners polygon primitive as box body*
4,1,4,$2,$3,$4,$5,$6,$7,$8,$9,$2,$3,0*
0 Add four circle primitives for the rounded corners*
1,1,$1+$1,$2,$3*
1,1,$1+$1,$4,$5*
1,1,$1+$1,$6,$7*
1,1,$1+$1,$8,$9*
0 Add four rect primitives between the rounded corners*
20,1,$1+$1,$2,$3,$4,$5,0*
20,1,$1+$1,$4,$5,$6,$7,0*
20,1,$1+$1,$6,$7,$8,$9,0*
20,1,$1+$1,$8,$9,$2,$3,0*%
G04 Aperture macros list end*
%ADD10C,1.400000*%
%ADD11R,3.000000X3.000000*%
%ADD12C,3.000000*%
%ADD13C,3.400000*%
%ADD14R,2.500000X4.500000*%
%ADD15O,2.500000X4.500000*%
%ADD16RoundRect,0.250000X-0.550000X-0.550000X0.550000X-0.550000X0.550000X0.550000X-0.550000X0.550000X0*%
%ADD17C,1.600000*%
%ADD18R,1.905000X2.000000*%
%ADD19O,1.905000X2.000000*%
%ADD20R,1.800000X1.800000*%
%ADD21C,1.800000*%
G04 APERTURE END LIST*
D10*
%TO.C,R2*%
X90460000Y-95850000D03*
X90460000Y-93310000D03*
%TD*%
%TO.C,R3*%
X120000000Y-97720000D03*
X120000000Y-95180000D03*
%TD*%
D11*
%TO.C,J3*%
X156750000Y-79907500D03*
D12*
X156750000Y-76027500D03*
%TD*%
D10*
%TO.C,R8*%
X90500000Y-103720000D03*
X90500000Y-101180000D03*
%TD*%
%TO.C,R5*%
X126780000Y-95500000D03*
X126780000Y-92960000D03*
%TD*%
%TO.C,R7*%
X127000000Y-89500000D03*
X127000000Y-86960000D03*
%TD*%
D13*
%TO.C,Q2*%
X103000000Y-73075000D03*
D14*
X97550000Y-91875000D03*
D15*
X103000000Y-91875000D03*
X108450000Y-91875000D03*
%TD*%
D10*
%TO.C,R6*%
X84500000Y-99220000D03*
X84500000Y-96680000D03*
%TD*%
%TO.C,pt1000*%
X64000000Y-97000000D03*
X64000000Y-94460000D03*
%TD*%
D16*
%TO.C,SW1*%
X140695000Y-92702500D03*
D17*
X140695000Y-95242500D03*
X140695000Y-97782500D03*
X140695000Y-100322500D03*
X148315000Y-100322500D03*
X148315000Y-97782500D03*
X148315000Y-95242500D03*
X148315000Y-92702500D03*
%TD*%
D10*
%TO.C,R1*%
X84000000Y-111500000D03*
X84000000Y-108960000D03*
%TD*%
D16*
%TO.C,U2*%
X97695000Y-106190000D03*
D17*
X97695000Y-108730000D03*
X97695000Y-111270000D03*
X97695000Y-113810000D03*
X105315000Y-113810000D03*
X105315000Y-111270000D03*
X105315000Y-108730000D03*
X105315000Y-106190000D03*
%TD*%
D11*
%TO.C,J1*%
X156750000Y-116407500D03*
D12*
X156750000Y-112527500D03*
%TD*%
D18*
%TO.C,U1*%
X118960000Y-80950000D03*
D19*
X121500000Y-80950000D03*
X124040000Y-80950000D03*
%TD*%
D20*
%TO.C,D1*%
X83500000Y-89000000D03*
D21*
X86040000Y-89000000D03*
%TD*%
D10*
%TO.C,R4*%
X128000000Y-101500000D03*
X128000000Y-98960000D03*
%TD*%
M02*
