%TF.GenerationSoftware,KiCad,Pcbnew,9.0.2-9.0.2-0~ubuntu24.04.1*%
%TF.CreationDate,2025-10-22T08:36:29+03:00*%
%TF.ProjectId,atlas-test-task,61746c61-732d-4746-9573-742d7461736b,rev?*%
%TF.SameCoordinates,Original*%
%TF.FileFunction,Legend,Top*%
%TF.FilePolarity,Positive*%
%FSLAX46Y46*%
G04 Gerber Fmt 4.6, Leading zero omitted, Abs format (unit mm)*
G04 Created by KiCad (PCBNEW 9.0.2-9.0.2-0~ubuntu24.04.1) date 2025-10-22 08:36:29*
%MOMM*%
%LPD*%
G01*
G04 APERTURE LIST*
%ADD10C,0.150000*%
%ADD11C,0.120000*%
G04 APERTURE END LIST*
D10*
X88994819Y-94746666D02*
X88518628Y-95079999D01*
X88994819Y-95318094D02*
X87994819Y-95318094D01*
X87994819Y-95318094D02*
X87994819Y-94937142D01*
X87994819Y-94937142D02*
X88042438Y-94841904D01*
X88042438Y-94841904D02*
X88090057Y-94794285D01*
X88090057Y-94794285D02*
X88185295Y-94746666D01*
X88185295Y-94746666D02*
X88328152Y-94746666D01*
X88328152Y-94746666D02*
X88423390Y-94794285D01*
X88423390Y-94794285D02*
X88471009Y-94841904D01*
X88471009Y-94841904D02*
X88518628Y-94937142D01*
X88518628Y-94937142D02*
X88518628Y-95318094D01*
X88090057Y-94365713D02*
X88042438Y-94318094D01*
X88042438Y-94318094D02*
X87994819Y-94222856D01*
X87994819Y-94222856D02*
X87994819Y-93984761D01*
X87994819Y-93984761D02*
X88042438Y-93889523D01*
X88042438Y-93889523D02*
X88090057Y-93841904D01*
X88090057Y-93841904D02*
X88185295Y-93794285D01*
X88185295Y-93794285D02*
X88280533Y-93794285D01*
X88280533Y-93794285D02*
X88423390Y-93841904D01*
X88423390Y-93841904D02*
X88994819Y-94413332D01*
X88994819Y-94413332D02*
X88994819Y-93794285D01*
X118534819Y-96616666D02*
X118058628Y-96949999D01*
X118534819Y-97188094D02*
X117534819Y-97188094D01*
X117534819Y-97188094D02*
X117534819Y-96807142D01*
X117534819Y-96807142D02*
X117582438Y-96711904D01*
X117582438Y-96711904D02*
X117630057Y-96664285D01*
X117630057Y-96664285D02*
X117725295Y-96616666D01*
X117725295Y-96616666D02*
X117868152Y-96616666D01*
X117868152Y-96616666D02*
X117963390Y-96664285D01*
X117963390Y-96664285D02*
X118011009Y-96711904D01*
X118011009Y-96711904D02*
X118058628Y-96807142D01*
X118058628Y-96807142D02*
X118058628Y-97188094D01*
X117534819Y-96283332D02*
X117534819Y-95664285D01*
X117534819Y-95664285D02*
X117915771Y-95997618D01*
X117915771Y-95997618D02*
X117915771Y-95854761D01*
X117915771Y-95854761D02*
X117963390Y-95759523D01*
X117963390Y-95759523D02*
X118011009Y-95711904D01*
X118011009Y-95711904D02*
X118106247Y-95664285D01*
X118106247Y-95664285D02*
X118344342Y-95664285D01*
X118344342Y-95664285D02*
X118439580Y-95711904D01*
X118439580Y-95711904D02*
X118487200Y-95759523D01*
X118487200Y-95759523D02*
X118534819Y-95854761D01*
X118534819Y-95854761D02*
X118534819Y-96140475D01*
X118534819Y-96140475D02*
X118487200Y-96235713D01*
X118487200Y-96235713D02*
X118439580Y-96283332D01*
X151124819Y-78330833D02*
X151839104Y-78330833D01*
X151839104Y-78330833D02*
X151981961Y-78378452D01*
X151981961Y-78378452D02*
X152077200Y-78473690D01*
X152077200Y-78473690D02*
X152124819Y-78616547D01*
X152124819Y-78616547D02*
X152124819Y-78711785D01*
X151124819Y-77949880D02*
X151124819Y-77330833D01*
X151124819Y-77330833D02*
X151505771Y-77664166D01*
X151505771Y-77664166D02*
X151505771Y-77521309D01*
X151505771Y-77521309D02*
X151553390Y-77426071D01*
X151553390Y-77426071D02*
X151601009Y-77378452D01*
X151601009Y-77378452D02*
X151696247Y-77330833D01*
X151696247Y-77330833D02*
X151934342Y-77330833D01*
X151934342Y-77330833D02*
X152029580Y-77378452D01*
X152029580Y-77378452D02*
X152077200Y-77426071D01*
X152077200Y-77426071D02*
X152124819Y-77521309D01*
X152124819Y-77521309D02*
X152124819Y-77807023D01*
X152124819Y-77807023D02*
X152077200Y-77902261D01*
X152077200Y-77902261D02*
X152029580Y-77949880D01*
X89034819Y-102616666D02*
X88558628Y-102949999D01*
X89034819Y-103188094D02*
X88034819Y-103188094D01*
X88034819Y-103188094D02*
X88034819Y-102807142D01*
X88034819Y-102807142D02*
X88082438Y-102711904D01*
X88082438Y-102711904D02*
X88130057Y-102664285D01*
X88130057Y-102664285D02*
X88225295Y-102616666D01*
X88225295Y-102616666D02*
X88368152Y-102616666D01*
X88368152Y-102616666D02*
X88463390Y-102664285D01*
X88463390Y-102664285D02*
X88511009Y-102711904D01*
X88511009Y-102711904D02*
X88558628Y-102807142D01*
X88558628Y-102807142D02*
X88558628Y-103188094D01*
X88463390Y-102045237D02*
X88415771Y-102140475D01*
X88415771Y-102140475D02*
X88368152Y-102188094D01*
X88368152Y-102188094D02*
X88272914Y-102235713D01*
X88272914Y-102235713D02*
X88225295Y-102235713D01*
X88225295Y-102235713D02*
X88130057Y-102188094D01*
X88130057Y-102188094D02*
X88082438Y-102140475D01*
X88082438Y-102140475D02*
X88034819Y-102045237D01*
X88034819Y-102045237D02*
X88034819Y-101854761D01*
X88034819Y-101854761D02*
X88082438Y-101759523D01*
X88082438Y-101759523D02*
X88130057Y-101711904D01*
X88130057Y-101711904D02*
X88225295Y-101664285D01*
X88225295Y-101664285D02*
X88272914Y-101664285D01*
X88272914Y-101664285D02*
X88368152Y-101711904D01*
X88368152Y-101711904D02*
X88415771Y-101759523D01*
X88415771Y-101759523D02*
X88463390Y-101854761D01*
X88463390Y-101854761D02*
X88463390Y-102045237D01*
X88463390Y-102045237D02*
X88511009Y-102140475D01*
X88511009Y-102140475D02*
X88558628Y-102188094D01*
X88558628Y-102188094D02*
X88653866Y-102235713D01*
X88653866Y-102235713D02*
X88844342Y-102235713D01*
X88844342Y-102235713D02*
X88939580Y-102188094D01*
X88939580Y-102188094D02*
X88987200Y-102140475D01*
X88987200Y-102140475D02*
X89034819Y-102045237D01*
X89034819Y-102045237D02*
X89034819Y-101854761D01*
X89034819Y-101854761D02*
X88987200Y-101759523D01*
X88987200Y-101759523D02*
X88939580Y-101711904D01*
X88939580Y-101711904D02*
X88844342Y-101664285D01*
X88844342Y-101664285D02*
X88653866Y-101664285D01*
X88653866Y-101664285D02*
X88558628Y-101711904D01*
X88558628Y-101711904D02*
X88511009Y-101759523D01*
X88511009Y-101759523D02*
X88463390Y-101854761D01*
X125314819Y-94396666D02*
X124838628Y-94729999D01*
X125314819Y-94968094D02*
X124314819Y-94968094D01*
X124314819Y-94968094D02*
X124314819Y-94587142D01*
X124314819Y-94587142D02*
X124362438Y-94491904D01*
X124362438Y-94491904D02*
X124410057Y-94444285D01*
X124410057Y-94444285D02*
X124505295Y-94396666D01*
X124505295Y-94396666D02*
X124648152Y-94396666D01*
X124648152Y-94396666D02*
X124743390Y-94444285D01*
X124743390Y-94444285D02*
X124791009Y-94491904D01*
X124791009Y-94491904D02*
X124838628Y-94587142D01*
X124838628Y-94587142D02*
X124838628Y-94968094D01*
X124314819Y-93491904D02*
X124314819Y-93968094D01*
X124314819Y-93968094D02*
X124791009Y-94015713D01*
X124791009Y-94015713D02*
X124743390Y-93968094D01*
X124743390Y-93968094D02*
X124695771Y-93872856D01*
X124695771Y-93872856D02*
X124695771Y-93634761D01*
X124695771Y-93634761D02*
X124743390Y-93539523D01*
X124743390Y-93539523D02*
X124791009Y-93491904D01*
X124791009Y-93491904D02*
X124886247Y-93444285D01*
X124886247Y-93444285D02*
X125124342Y-93444285D01*
X125124342Y-93444285D02*
X125219580Y-93491904D01*
X125219580Y-93491904D02*
X125267200Y-93539523D01*
X125267200Y-93539523D02*
X125314819Y-93634761D01*
X125314819Y-93634761D02*
X125314819Y-93872856D01*
X125314819Y-93872856D02*
X125267200Y-93968094D01*
X125267200Y-93968094D02*
X125219580Y-94015713D01*
X125534819Y-88396666D02*
X125058628Y-88729999D01*
X125534819Y-88968094D02*
X124534819Y-88968094D01*
X124534819Y-88968094D02*
X124534819Y-88587142D01*
X124534819Y-88587142D02*
X124582438Y-88491904D01*
X124582438Y-88491904D02*
X124630057Y-88444285D01*
X124630057Y-88444285D02*
X124725295Y-88396666D01*
X124725295Y-88396666D02*
X124868152Y-88396666D01*
X124868152Y-88396666D02*
X124963390Y-88444285D01*
X124963390Y-88444285D02*
X125011009Y-88491904D01*
X125011009Y-88491904D02*
X125058628Y-88587142D01*
X125058628Y-88587142D02*
X125058628Y-88968094D01*
X124534819Y-88063332D02*
X124534819Y-87396666D01*
X124534819Y-87396666D02*
X125534819Y-87825237D01*
X102904761Y-68475057D02*
X102809523Y-68427438D01*
X102809523Y-68427438D02*
X102714285Y-68332200D01*
X102714285Y-68332200D02*
X102571428Y-68189342D01*
X102571428Y-68189342D02*
X102476190Y-68141723D01*
X102476190Y-68141723D02*
X102380952Y-68141723D01*
X102428571Y-68379819D02*
X102333333Y-68332200D01*
X102333333Y-68332200D02*
X102238095Y-68236961D01*
X102238095Y-68236961D02*
X102190476Y-68046485D01*
X102190476Y-68046485D02*
X102190476Y-67713152D01*
X102190476Y-67713152D02*
X102238095Y-67522676D01*
X102238095Y-67522676D02*
X102333333Y-67427438D01*
X102333333Y-67427438D02*
X102428571Y-67379819D01*
X102428571Y-67379819D02*
X102619047Y-67379819D01*
X102619047Y-67379819D02*
X102714285Y-67427438D01*
X102714285Y-67427438D02*
X102809523Y-67522676D01*
X102809523Y-67522676D02*
X102857142Y-67713152D01*
X102857142Y-67713152D02*
X102857142Y-68046485D01*
X102857142Y-68046485D02*
X102809523Y-68236961D01*
X102809523Y-68236961D02*
X102714285Y-68332200D01*
X102714285Y-68332200D02*
X102619047Y-68379819D01*
X102619047Y-68379819D02*
X102428571Y-68379819D01*
X103238095Y-67475057D02*
X103285714Y-67427438D01*
X103285714Y-67427438D02*
X103380952Y-67379819D01*
X103380952Y-67379819D02*
X103619047Y-67379819D01*
X103619047Y-67379819D02*
X103714285Y-67427438D01*
X103714285Y-67427438D02*
X103761904Y-67475057D01*
X103761904Y-67475057D02*
X103809523Y-67570295D01*
X103809523Y-67570295D02*
X103809523Y-67665533D01*
X103809523Y-67665533D02*
X103761904Y-67808390D01*
X103761904Y-67808390D02*
X103190476Y-68379819D01*
X103190476Y-68379819D02*
X103809523Y-68379819D01*
X83034819Y-98116666D02*
X82558628Y-98449999D01*
X83034819Y-98688094D02*
X82034819Y-98688094D01*
X82034819Y-98688094D02*
X82034819Y-98307142D01*
X82034819Y-98307142D02*
X82082438Y-98211904D01*
X82082438Y-98211904D02*
X82130057Y-98164285D01*
X82130057Y-98164285D02*
X82225295Y-98116666D01*
X82225295Y-98116666D02*
X82368152Y-98116666D01*
X82368152Y-98116666D02*
X82463390Y-98164285D01*
X82463390Y-98164285D02*
X82511009Y-98211904D01*
X82511009Y-98211904D02*
X82558628Y-98307142D01*
X82558628Y-98307142D02*
X82558628Y-98688094D01*
X82034819Y-97259523D02*
X82034819Y-97449999D01*
X82034819Y-97449999D02*
X82082438Y-97545237D01*
X82082438Y-97545237D02*
X82130057Y-97592856D01*
X82130057Y-97592856D02*
X82272914Y-97688094D01*
X82272914Y-97688094D02*
X82463390Y-97735713D01*
X82463390Y-97735713D02*
X82844342Y-97735713D01*
X82844342Y-97735713D02*
X82939580Y-97688094D01*
X82939580Y-97688094D02*
X82987200Y-97640475D01*
X82987200Y-97640475D02*
X83034819Y-97545237D01*
X83034819Y-97545237D02*
X83034819Y-97354761D01*
X83034819Y-97354761D02*
X82987200Y-97259523D01*
X82987200Y-97259523D02*
X82939580Y-97211904D01*
X82939580Y-97211904D02*
X82844342Y-97164285D01*
X82844342Y-97164285D02*
X82606247Y-97164285D01*
X82606247Y-97164285D02*
X82511009Y-97211904D01*
X82511009Y-97211904D02*
X82463390Y-97259523D01*
X82463390Y-97259523D02*
X82415771Y-97354761D01*
X82415771Y-97354761D02*
X82415771Y-97545237D01*
X82415771Y-97545237D02*
X82463390Y-97640475D01*
X82463390Y-97640475D02*
X82511009Y-97688094D01*
X82511009Y-97688094D02*
X82606247Y-97735713D01*
X61868152Y-98134761D02*
X62868152Y-98134761D01*
X61915771Y-98134761D02*
X61868152Y-98039523D01*
X61868152Y-98039523D02*
X61868152Y-97849047D01*
X61868152Y-97849047D02*
X61915771Y-97753809D01*
X61915771Y-97753809D02*
X61963390Y-97706190D01*
X61963390Y-97706190D02*
X62058628Y-97658571D01*
X62058628Y-97658571D02*
X62344342Y-97658571D01*
X62344342Y-97658571D02*
X62439580Y-97706190D01*
X62439580Y-97706190D02*
X62487200Y-97753809D01*
X62487200Y-97753809D02*
X62534819Y-97849047D01*
X62534819Y-97849047D02*
X62534819Y-98039523D01*
X62534819Y-98039523D02*
X62487200Y-98134761D01*
X61868152Y-97372856D02*
X61868152Y-96991904D01*
X61534819Y-97229999D02*
X62391961Y-97229999D01*
X62391961Y-97229999D02*
X62487200Y-97182380D01*
X62487200Y-97182380D02*
X62534819Y-97087142D01*
X62534819Y-97087142D02*
X62534819Y-96991904D01*
X62534819Y-96134761D02*
X62534819Y-96706189D01*
X62534819Y-96420475D02*
X61534819Y-96420475D01*
X61534819Y-96420475D02*
X61677676Y-96515713D01*
X61677676Y-96515713D02*
X61772914Y-96610951D01*
X61772914Y-96610951D02*
X61820533Y-96706189D01*
X61534819Y-95515713D02*
X61534819Y-95420475D01*
X61534819Y-95420475D02*
X61582438Y-95325237D01*
X61582438Y-95325237D02*
X61630057Y-95277618D01*
X61630057Y-95277618D02*
X61725295Y-95229999D01*
X61725295Y-95229999D02*
X61915771Y-95182380D01*
X61915771Y-95182380D02*
X62153866Y-95182380D01*
X62153866Y-95182380D02*
X62344342Y-95229999D01*
X62344342Y-95229999D02*
X62439580Y-95277618D01*
X62439580Y-95277618D02*
X62487200Y-95325237D01*
X62487200Y-95325237D02*
X62534819Y-95420475D01*
X62534819Y-95420475D02*
X62534819Y-95515713D01*
X62534819Y-95515713D02*
X62487200Y-95610951D01*
X62487200Y-95610951D02*
X62439580Y-95658570D01*
X62439580Y-95658570D02*
X62344342Y-95706189D01*
X62344342Y-95706189D02*
X62153866Y-95753808D01*
X62153866Y-95753808D02*
X61915771Y-95753808D01*
X61915771Y-95753808D02*
X61725295Y-95706189D01*
X61725295Y-95706189D02*
X61630057Y-95658570D01*
X61630057Y-95658570D02*
X61582438Y-95610951D01*
X61582438Y-95610951D02*
X61534819Y-95515713D01*
X61534819Y-94563332D02*
X61534819Y-94468094D01*
X61534819Y-94468094D02*
X61582438Y-94372856D01*
X61582438Y-94372856D02*
X61630057Y-94325237D01*
X61630057Y-94325237D02*
X61725295Y-94277618D01*
X61725295Y-94277618D02*
X61915771Y-94229999D01*
X61915771Y-94229999D02*
X62153866Y-94229999D01*
X62153866Y-94229999D02*
X62344342Y-94277618D01*
X62344342Y-94277618D02*
X62439580Y-94325237D01*
X62439580Y-94325237D02*
X62487200Y-94372856D01*
X62487200Y-94372856D02*
X62534819Y-94468094D01*
X62534819Y-94468094D02*
X62534819Y-94563332D01*
X62534819Y-94563332D02*
X62487200Y-94658570D01*
X62487200Y-94658570D02*
X62439580Y-94706189D01*
X62439580Y-94706189D02*
X62344342Y-94753808D01*
X62344342Y-94753808D02*
X62153866Y-94801427D01*
X62153866Y-94801427D02*
X61915771Y-94801427D01*
X61915771Y-94801427D02*
X61725295Y-94753808D01*
X61725295Y-94753808D02*
X61630057Y-94706189D01*
X61630057Y-94706189D02*
X61582438Y-94658570D01*
X61582438Y-94658570D02*
X61534819Y-94563332D01*
X61534819Y-93610951D02*
X61534819Y-93515713D01*
X61534819Y-93515713D02*
X61582438Y-93420475D01*
X61582438Y-93420475D02*
X61630057Y-93372856D01*
X61630057Y-93372856D02*
X61725295Y-93325237D01*
X61725295Y-93325237D02*
X61915771Y-93277618D01*
X61915771Y-93277618D02*
X62153866Y-93277618D01*
X62153866Y-93277618D02*
X62344342Y-93325237D01*
X62344342Y-93325237D02*
X62439580Y-93372856D01*
X62439580Y-93372856D02*
X62487200Y-93420475D01*
X62487200Y-93420475D02*
X62534819Y-93515713D01*
X62534819Y-93515713D02*
X62534819Y-93610951D01*
X62534819Y-93610951D02*
X62487200Y-93706189D01*
X62487200Y-93706189D02*
X62439580Y-93753808D01*
X62439580Y-93753808D02*
X62344342Y-93801427D01*
X62344342Y-93801427D02*
X62153866Y-93849046D01*
X62153866Y-93849046D02*
X61915771Y-93849046D01*
X61915771Y-93849046D02*
X61725295Y-93801427D01*
X61725295Y-93801427D02*
X61630057Y-93753808D01*
X61630057Y-93753808D02*
X61582438Y-93706189D01*
X61582438Y-93706189D02*
X61534819Y-93610951D01*
X143171667Y-89999700D02*
X143314524Y-90047319D01*
X143314524Y-90047319D02*
X143552619Y-90047319D01*
X143552619Y-90047319D02*
X143647857Y-89999700D01*
X143647857Y-89999700D02*
X143695476Y-89952080D01*
X143695476Y-89952080D02*
X143743095Y-89856842D01*
X143743095Y-89856842D02*
X143743095Y-89761604D01*
X143743095Y-89761604D02*
X143695476Y-89666366D01*
X143695476Y-89666366D02*
X143647857Y-89618747D01*
X143647857Y-89618747D02*
X143552619Y-89571128D01*
X143552619Y-89571128D02*
X143362143Y-89523509D01*
X143362143Y-89523509D02*
X143266905Y-89475890D01*
X143266905Y-89475890D02*
X143219286Y-89428271D01*
X143219286Y-89428271D02*
X143171667Y-89333033D01*
X143171667Y-89333033D02*
X143171667Y-89237795D01*
X143171667Y-89237795D02*
X143219286Y-89142557D01*
X143219286Y-89142557D02*
X143266905Y-89094938D01*
X143266905Y-89094938D02*
X143362143Y-89047319D01*
X143362143Y-89047319D02*
X143600238Y-89047319D01*
X143600238Y-89047319D02*
X143743095Y-89094938D01*
X144076429Y-89047319D02*
X144314524Y-90047319D01*
X144314524Y-90047319D02*
X144505000Y-89333033D01*
X144505000Y-89333033D02*
X144695476Y-90047319D01*
X144695476Y-90047319D02*
X144933572Y-89047319D01*
X145838333Y-90047319D02*
X145266905Y-90047319D01*
X145552619Y-90047319D02*
X145552619Y-89047319D01*
X145552619Y-89047319D02*
X145457381Y-89190176D01*
X145457381Y-89190176D02*
X145362143Y-89285414D01*
X145362143Y-89285414D02*
X145266905Y-89333033D01*
X82534819Y-110396666D02*
X82058628Y-110729999D01*
X82534819Y-110968094D02*
X81534819Y-110968094D01*
X81534819Y-110968094D02*
X81534819Y-110587142D01*
X81534819Y-110587142D02*
X81582438Y-110491904D01*
X81582438Y-110491904D02*
X81630057Y-110444285D01*
X81630057Y-110444285D02*
X81725295Y-110396666D01*
X81725295Y-110396666D02*
X81868152Y-110396666D01*
X81868152Y-110396666D02*
X81963390Y-110444285D01*
X81963390Y-110444285D02*
X82011009Y-110491904D01*
X82011009Y-110491904D02*
X82058628Y-110587142D01*
X82058628Y-110587142D02*
X82058628Y-110968094D01*
X82534819Y-109444285D02*
X82534819Y-110015713D01*
X82534819Y-109729999D02*
X81534819Y-109729999D01*
X81534819Y-109729999D02*
X81677676Y-109825237D01*
X81677676Y-109825237D02*
X81772914Y-109920475D01*
X81772914Y-109920475D02*
X81820533Y-110015713D01*
X100743095Y-103314819D02*
X100743095Y-104124342D01*
X100743095Y-104124342D02*
X100790714Y-104219580D01*
X100790714Y-104219580D02*
X100838333Y-104267200D01*
X100838333Y-104267200D02*
X100933571Y-104314819D01*
X100933571Y-104314819D02*
X101124047Y-104314819D01*
X101124047Y-104314819D02*
X101219285Y-104267200D01*
X101219285Y-104267200D02*
X101266904Y-104219580D01*
X101266904Y-104219580D02*
X101314523Y-104124342D01*
X101314523Y-104124342D02*
X101314523Y-103314819D01*
X101743095Y-103410057D02*
X101790714Y-103362438D01*
X101790714Y-103362438D02*
X101885952Y-103314819D01*
X101885952Y-103314819D02*
X102124047Y-103314819D01*
X102124047Y-103314819D02*
X102219285Y-103362438D01*
X102219285Y-103362438D02*
X102266904Y-103410057D01*
X102266904Y-103410057D02*
X102314523Y-103505295D01*
X102314523Y-103505295D02*
X102314523Y-103600533D01*
X102314523Y-103600533D02*
X102266904Y-103743390D01*
X102266904Y-103743390D02*
X101695476Y-104314819D01*
X101695476Y-104314819D02*
X102314523Y-104314819D01*
X151124819Y-114830833D02*
X151839104Y-114830833D01*
X151839104Y-114830833D02*
X151981961Y-114878452D01*
X151981961Y-114878452D02*
X152077200Y-114973690D01*
X152077200Y-114973690D02*
X152124819Y-115116547D01*
X152124819Y-115116547D02*
X152124819Y-115211785D01*
X152124819Y-113830833D02*
X152124819Y-114402261D01*
X152124819Y-114116547D02*
X151124819Y-114116547D01*
X151124819Y-114116547D02*
X151267676Y-114211785D01*
X151267676Y-114211785D02*
X151362914Y-114307023D01*
X151362914Y-114307023D02*
X151410533Y-114402261D01*
X120738095Y-76304819D02*
X120738095Y-77114342D01*
X120738095Y-77114342D02*
X120785714Y-77209580D01*
X120785714Y-77209580D02*
X120833333Y-77257200D01*
X120833333Y-77257200D02*
X120928571Y-77304819D01*
X120928571Y-77304819D02*
X121119047Y-77304819D01*
X121119047Y-77304819D02*
X121214285Y-77257200D01*
X121214285Y-77257200D02*
X121261904Y-77209580D01*
X121261904Y-77209580D02*
X121309523Y-77114342D01*
X121309523Y-77114342D02*
X121309523Y-76304819D01*
X122309523Y-77304819D02*
X121738095Y-77304819D01*
X122023809Y-77304819D02*
X122023809Y-76304819D01*
X122023809Y-76304819D02*
X121928571Y-76447676D01*
X121928571Y-76447676D02*
X121833333Y-76542914D01*
X121833333Y-76542914D02*
X121738095Y-76590533D01*
X84031905Y-86494819D02*
X84031905Y-85494819D01*
X84031905Y-85494819D02*
X84270000Y-85494819D01*
X84270000Y-85494819D02*
X84412857Y-85542438D01*
X84412857Y-85542438D02*
X84508095Y-85637676D01*
X84508095Y-85637676D02*
X84555714Y-85732914D01*
X84555714Y-85732914D02*
X84603333Y-85923390D01*
X84603333Y-85923390D02*
X84603333Y-86066247D01*
X84603333Y-86066247D02*
X84555714Y-86256723D01*
X84555714Y-86256723D02*
X84508095Y-86351961D01*
X84508095Y-86351961D02*
X84412857Y-86447200D01*
X84412857Y-86447200D02*
X84270000Y-86494819D01*
X84270000Y-86494819D02*
X84031905Y-86494819D01*
X85555714Y-86494819D02*
X84984286Y-86494819D01*
X85270000Y-86494819D02*
X85270000Y-85494819D01*
X85270000Y-85494819D02*
X85174762Y-85637676D01*
X85174762Y-85637676D02*
X85079524Y-85732914D01*
X85079524Y-85732914D02*
X84984286Y-85780533D01*
X126534819Y-100396666D02*
X126058628Y-100729999D01*
X126534819Y-100968094D02*
X125534819Y-100968094D01*
X125534819Y-100968094D02*
X125534819Y-100587142D01*
X125534819Y-100587142D02*
X125582438Y-100491904D01*
X125582438Y-100491904D02*
X125630057Y-100444285D01*
X125630057Y-100444285D02*
X125725295Y-100396666D01*
X125725295Y-100396666D02*
X125868152Y-100396666D01*
X125868152Y-100396666D02*
X125963390Y-100444285D01*
X125963390Y-100444285D02*
X126011009Y-100491904D01*
X126011009Y-100491904D02*
X126058628Y-100587142D01*
X126058628Y-100587142D02*
X126058628Y-100968094D01*
X125868152Y-99539523D02*
X126534819Y-99539523D01*
X125487200Y-99777618D02*
X126201485Y-100015713D01*
X126201485Y-100015713D02*
X126201485Y-99396666D01*
D11*
%TO.C,R2*%
X90460000Y-94930000D02*
X90460000Y-94310000D01*
X91380000Y-95850000D02*
G75*
G02*
X89540000Y-95850000I-920000J0D01*
G01*
X89540000Y-95850000D02*
G75*
G02*
X91380000Y-95850000I920000J0D01*
G01*
%TO.C,R3*%
X120000000Y-96800000D02*
X120000000Y-96180000D01*
X120920000Y-97720000D02*
G75*
G02*
X119080000Y-97720000I-920000J0D01*
G01*
X119080000Y-97720000D02*
G75*
G02*
X120920000Y-97720000I920000J0D01*
G01*
%TO.C,J3*%
X153450000Y-80797500D02*
X153450000Y-75207500D01*
X153700000Y-80797500D02*
X153700000Y-75207500D01*
X154550000Y-81107500D02*
X154550000Y-82407500D01*
X154550000Y-82407500D02*
X156750000Y-82407500D01*
X154590000Y-80797500D02*
X154590000Y-75207500D01*
X154840000Y-73937500D02*
X156750000Y-73937500D01*
X154840000Y-75207500D02*
X153450000Y-75207500D01*
X154840000Y-80797500D02*
X153450000Y-80797500D01*
X154840000Y-82067500D02*
X154840000Y-73937500D01*
X154840000Y-82067500D02*
X156750000Y-82067500D01*
X156750000Y-82067500D02*
X161580000Y-82067500D01*
X161320000Y-77617500D02*
X161580000Y-77617500D01*
X161320000Y-78387500D02*
X161320000Y-77617500D01*
X161580000Y-73937500D02*
X156750000Y-73937500D01*
X161580000Y-77617500D02*
X161580000Y-73937500D01*
X161580000Y-78387500D02*
X161320000Y-78387500D01*
X161580000Y-78387500D02*
X161580000Y-82067500D01*
%TO.C,R8*%
X90500000Y-102800000D02*
X90500000Y-102180000D01*
X91420000Y-103720000D02*
G75*
G02*
X89580000Y-103720000I-920000J0D01*
G01*
X89580000Y-103720000D02*
G75*
G02*
X91420000Y-103720000I920000J0D01*
G01*
%TO.C,R5*%
X126780000Y-94580000D02*
X126780000Y-93960000D01*
X127700000Y-95500000D02*
G75*
G02*
X125860000Y-95500000I-920000J0D01*
G01*
X125860000Y-95500000D02*
G75*
G02*
X127700000Y-95500000I920000J0D01*
G01*
%TO.C,R7*%
X127000000Y-88580000D02*
X127000000Y-87960000D01*
X127920000Y-89500000D02*
G75*
G02*
X126080000Y-89500000I-920000J0D01*
G01*
X126080000Y-89500000D02*
G75*
G02*
X127920000Y-89500000I920000J0D01*
G01*
%TO.C,Q2*%
X95140000Y-68765000D02*
X110860000Y-68765000D01*
X95140000Y-88985000D02*
X95140000Y-68765000D01*
X95140000Y-88985000D02*
X110860000Y-88985000D01*
X96940000Y-88985000D02*
X96940000Y-89365000D01*
X98160000Y-88985000D02*
X98160000Y-89365000D01*
X102390000Y-88985000D02*
X102390000Y-89365000D01*
X103610000Y-88985000D02*
X103610000Y-89365000D01*
X107840000Y-88985000D02*
X107840000Y-89365000D01*
X109060000Y-88985000D02*
X109060000Y-89365000D01*
X110860000Y-88985000D02*
X110860000Y-68765000D01*
%TO.C,R6*%
X84500000Y-98300000D02*
X84500000Y-97680000D01*
X85420000Y-99220000D02*
G75*
G02*
X83580000Y-99220000I-920000J0D01*
G01*
X83580000Y-99220000D02*
G75*
G02*
X85420000Y-99220000I920000J0D01*
G01*
%TO.C,pt1000*%
X64000000Y-96080000D02*
X64000000Y-95460000D01*
X64920000Y-97000000D02*
G75*
G02*
X63080000Y-97000000I-920000J0D01*
G01*
X63080000Y-97000000D02*
G75*
G02*
X64920000Y-97000000I920000J0D01*
G01*
%TO.C,SW1*%
X140855000Y-90352500D02*
X140855000Y-91662500D01*
X140855000Y-90352500D02*
X142238000Y-90352500D01*
X141095000Y-90592500D02*
X141095000Y-91662500D01*
X141095000Y-90592500D02*
X147915000Y-90592500D01*
X141095000Y-93742500D02*
X141095000Y-94282500D01*
X141095000Y-96202500D02*
X141095000Y-96822500D01*
X141095000Y-98742500D02*
X141095000Y-99362500D01*
X141095000Y-101282500D02*
X141095000Y-102432500D01*
X141095000Y-102432500D02*
X147915000Y-102432500D01*
X143901667Y-92067500D02*
X143901667Y-93337500D01*
X143901667Y-94607500D02*
X143901667Y-95877500D01*
X143901667Y-97147500D02*
X143901667Y-98417500D01*
X143901667Y-99687500D02*
X143901667Y-100957500D01*
X147915000Y-90592500D02*
X147915000Y-91742500D01*
X147915000Y-93662500D02*
X147915000Y-94282500D01*
X147915000Y-96202500D02*
X147915000Y-96822500D01*
X147915000Y-98742500D02*
X147915000Y-99362500D01*
X147915000Y-101282500D02*
X147915000Y-102432500D01*
X142695000Y-92067500D02*
X143901667Y-92067500D01*
X143901667Y-93337500D01*
X142695000Y-93337500D01*
X142695000Y-92067500D01*
G36*
X142695000Y-92067500D02*
G01*
X143901667Y-92067500D01*
X143901667Y-93337500D01*
X142695000Y-93337500D01*
X142695000Y-92067500D01*
G37*
X142695000Y-92067500D02*
X146315000Y-92067500D01*
X146315000Y-93337500D01*
X142695000Y-93337500D01*
X142695000Y-92067500D01*
X142695000Y-94607500D02*
X143901667Y-94607500D01*
X143901667Y-95877500D01*
X142695000Y-95877500D01*
X142695000Y-94607500D01*
G36*
X142695000Y-94607500D02*
G01*
X143901667Y-94607500D01*
X143901667Y-95877500D01*
X142695000Y-95877500D01*
X142695000Y-94607500D01*
G37*
X142695000Y-94607500D02*
X146315000Y-94607500D01*
X146315000Y-95877500D01*
X142695000Y-95877500D01*
X142695000Y-94607500D01*
X142695000Y-97147500D02*
X143901667Y-97147500D01*
X143901667Y-98417500D01*
X142695000Y-98417500D01*
X142695000Y-97147500D01*
G36*
X142695000Y-97147500D02*
G01*
X143901667Y-97147500D01*
X143901667Y-98417500D01*
X142695000Y-98417500D01*
X142695000Y-97147500D01*
G37*
X142695000Y-97147500D02*
X146315000Y-97147500D01*
X146315000Y-98417500D01*
X142695000Y-98417500D01*
X142695000Y-97147500D01*
X142695000Y-99687500D02*
X143901667Y-99687500D01*
X143901667Y-100957500D01*
X142695000Y-100957500D01*
X142695000Y-99687500D01*
G36*
X142695000Y-99687500D02*
G01*
X143901667Y-99687500D01*
X143901667Y-100957500D01*
X142695000Y-100957500D01*
X142695000Y-99687500D01*
G37*
X142695000Y-99687500D02*
X146315000Y-99687500D01*
X146315000Y-100957500D01*
X142695000Y-100957500D01*
X142695000Y-99687500D01*
%TO.C,R1*%
X84000000Y-110580000D02*
X84000000Y-109960000D01*
X84920000Y-111500000D02*
G75*
G02*
X83080000Y-111500000I-920000J0D01*
G01*
X83080000Y-111500000D02*
G75*
G02*
X84920000Y-111500000I920000J0D01*
G01*
%TO.C,U2*%
X98855000Y-104860000D02*
X98855000Y-115140000D01*
X98855000Y-115140000D02*
X104155000Y-115140000D01*
X100505000Y-104860000D02*
X98855000Y-104860000D01*
X104155000Y-104860000D02*
X102505000Y-104860000D01*
X104155000Y-115140000D02*
X104155000Y-104860000D01*
X102505000Y-104860000D02*
G75*
G02*
X100505000Y-104860000I-1000000J0D01*
G01*
%TO.C,J1*%
X153450000Y-117297500D02*
X153450000Y-111707500D01*
X153700000Y-117297500D02*
X153700000Y-111707500D01*
X154550000Y-117607500D02*
X154550000Y-118907500D01*
X154550000Y-118907500D02*
X156750000Y-118907500D01*
X154590000Y-117297500D02*
X154590000Y-111707500D01*
X154840000Y-110437500D02*
X156750000Y-110437500D01*
X154840000Y-111707500D02*
X153450000Y-111707500D01*
X154840000Y-117297500D02*
X153450000Y-117297500D01*
X154840000Y-118567500D02*
X154840000Y-110437500D01*
X154840000Y-118567500D02*
X156750000Y-118567500D01*
X156750000Y-118567500D02*
X161580000Y-118567500D01*
X161320000Y-114117500D02*
X161580000Y-114117500D01*
X161320000Y-114887500D02*
X161320000Y-114117500D01*
X161580000Y-110437500D02*
X156750000Y-110437500D01*
X161580000Y-114117500D02*
X161580000Y-110437500D01*
X161580000Y-114887500D02*
X161320000Y-114887500D01*
X161580000Y-114887500D02*
X161580000Y-118567500D01*
%TO.C,U1*%
X116390000Y-77690000D02*
X116390000Y-82310000D01*
X116390000Y-77690000D02*
X126610000Y-77690000D01*
X116390000Y-79070000D02*
X126610000Y-79070000D01*
X116390000Y-82310000D02*
X126610000Y-82310000D01*
X119650000Y-77690000D02*
X119650000Y-79070000D01*
X123350000Y-77690000D02*
X123350000Y-79070000D01*
X126610000Y-77690000D02*
X126610000Y-82310000D01*
%TO.C,D1*%
X83210000Y-87764000D02*
X83210000Y-87920000D01*
X83210000Y-90080000D02*
X83210000Y-90236000D01*
X83210000Y-87764484D02*
G75*
G02*
X86441437Y-87920000I1560000J-1235516D01*
G01*
X83729039Y-87920000D02*
G75*
G02*
X85810961Y-87920000I1040961J-1080000D01*
G01*
X85810961Y-90080000D02*
G75*
G02*
X83729039Y-90080000I-1040961J1080000D01*
G01*
X86441437Y-90080000D02*
G75*
G02*
X83210000Y-90235516I-1671437J1080000D01*
G01*
%TO.C,R4*%
X128000000Y-100580000D02*
X128000000Y-99960000D01*
X128920000Y-101500000D02*
G75*
G02*
X127080000Y-101500000I-920000J0D01*
G01*
X127080000Y-101500000D02*
G75*
G02*
X128920000Y-101500000I920000J0D01*
G01*
%TD*%
M02*
